/* XPM */
static const char * bt_digikam_xpm[] = {
"22 22 167 2",
"  	c None",
". 	c #70ADCE",
"+ 	c #72AFCE",
"@ 	c #68A9CA",
"# 	c #5EA2C5",
"$ 	c #559AC0",
"% 	c #4A93BA",
"& 	c #418BB4",
"* 	c #3582AD",
"= 	c #2A7AA6",
"- 	c #1E6F9E",
"; 	c #1A6D9C",
"> 	c #166A9B",
", 	c #136799",
"' 	c #106598",
") 	c #327FAD",
"! 	c #9CCCE5",
"~ 	c #97CAE3",
"{ 	c #92C7E2",
"] 	c #8EC5E1",
"^ 	c #89C2E0",
"/ 	c #84C0DE",
"( 	c #80BEDD",
"_ 	c #7BBBDC",
": 	c #76B9DB",
"< 	c #72B7D9",
"[ 	c #69B1D6",
"} 	c #62ACD2",
"| 	c #5AA7CE",
"1 	c #54A2CA",
"2 	c #4E9EC6",
"3 	c #4392BB",
"4 	c #3380A8",
"5 	c #0E6497",
"6 	c #2D7DAB",
"7 	c #90C6E1",
"8 	c #8CC4E0",
"9 	c #87C1DF",
"0 	c #82BFDE",
"a 	c #7EBDDD",
"b 	c #78BADB",
"c 	c #74B8DA",
"d 	c #6FB5D9",
"e 	c #6BB3D8",
"f 	c #66B1D6",
"g 	c #7EAEC7",
"h 	c #C3D1D7",
"i 	c #BACCD5",
"j 	c #95B7C8",
"k 	c #4BA1CC",
"l 	c #46A0CE",
"m 	c #3787AF",
"n 	c #1A6D9D",
"o 	c #2879A9",
"p 	c #7BBCDC",
"q 	c #6DB4D8",
"r 	c #63AFD6",
"s 	c #56A9D2",
"t 	c #4CA3CF",
"u 	c #46A1CE",
"v 	c #6BA3C0",
"w 	c #F6F7F7",
"x 	c #FFFFFF",
"y 	c #659FBD",
"z 	c #419ECD",
"A 	c #3788B0",
"B 	c #1B6D9D",
"C 	c #2677A7",
"D 	c #79BADB",
"E 	c #63A8CC",
"F 	c #417DA3",
"G 	c #3976A2",
"H 	c #29668E",
"I 	c #1C6189",
"J 	c #20658E",
"K 	c #3281AB",
"L 	c #5198BB",
"M 	c #609EBD",
"N 	c #64A0BE",
"O 	c #429BC8",
"P 	c #1F73A5",
"Q 	c #69B2D7",
"R 	c #5696BB",
"S 	c #4A89BB",
"T 	c #5488B6",
"U 	c #456580",
"V 	c #548CBC",
"W 	c #4585B7",
"X 	c #1E6895",
"Y 	c #1E6793",
"Z 	c #3B92BF",
"` 	c #1B6E9D",
" .	c #61AED5",
"..	c #5DACD4",
"+.	c #4380AD",
"@.	c #47647D",
"#.	c #454545",
"$.	c #3F3F3F",
"%.	c #343535",
"&.	c #416381",
"*.	c #3777A5",
"=.	c #196593",
"-.	c #277099",
";.	c #4295C0",
">.	c #558FC3",
",.	c #424649",
"'.	c #484848",
").	c #404040",
"!.	c #363636",
"~.	c #30373E",
"{.	c #4D8BBE",
"].	c #105A87",
"^.	c #185C84",
"/.	c #49A2CF",
"(.	c #3882AB",
"_.	c #4E7BA3",
":.	c #3E3E3E",
"<.	c #3B3B3B",
"[.	c #333333",
"}.	c #2A2A2A",
"|.	c #5083B1",
"1.	c #0A4C75",
"2.	c #195F87",
"3.	c #3E97C5",
"4.	c #5590C3",
"5.	c #363A3D",
"6.	c #373737",
"7.	c #343434",
"8.	c #2E2E2E",
"9.	c #2B343C",
"0.	c #4B88BC",
"a.	c #014771",
"b.	c #20678F",
"c.	c #3E98C6",
"d.	c #4282B0",
"e.	c #436481",
"f.	c #2E2F30",
"g.	c #2C2C2C",
"h.	c #272A2C",
"i.	c #43698B",
"j.	c #27628D",
"k.	c #0A4C72",
"l.	c #3A91BE",
"m.	c #1A6996",
"n.	c #2980AF",
"o.	c #3486B0",
"p.	c #417CAA",
"q.	c #5892C5",
"r.	c #426788",
"s.	c #5996CB",
"t.	c #346C98",
"u.	c #195C82",
"v.	c #398EBB",
"w.	c #186490",
"x.	c #3A556E",
"y.	c #326185",
"z.	c #245878",
"A.	c #2D769E",
"B.	c #3485B0",
"C.	c #388DB9",
"D.	c #3B93C0",
"E.	c #409DCB",
"F.	c #3280A9",
"G.	c #376684",
"H.	c #2B7099",
"I.	c #2C7CA8",
"J.	c #2D7EAA",
"                                            ",
"                                            ",
"                                            ",
"                                            ",
"  . + @ # $ % & * = - ; > , '               ",
") ! ~ { ] ^ / ( _ : < [ } | 1 2 3 4 5       ",
"6 7 8 9 0 a b c d e f g h i j k l m n       ",
"o / ( p : < q r s t u v w x x y z A B       ",
"C D c d E F G H I J K z L M N O z A n       ",
"P q Q R S T U V W X Y Z z z z z z A `       ",
"   ...+.@.#.$.%.&.*.=.-.z z z z z A `       ",
"  s ;.>.,.'.).!.~.{.].^.z z z z z A `       ",
"  /.(._.:.).<.[.}.|.1.2.z z z z z A `       ",
"  z 3.4.5.6.7.8.9.0.a.b.z z z z z A `       ",
"  c.z d.e.f.g.h.i.j.k.l.z z z z z A m.      ",
"    n.o.p.q.r.s.t.u.v.z z z z z z A w.      ",
"          x.y.z.A.B.C.D.c.E.z z z F.        ",
"                          G.H.I.J.          ",
"                                            ",
"                                            ",
"                                            ",
"                                            "};
