/* XPM */
static const char * bt_docopen_xpm[] = {
"22 22 243 2",
"  	c None",
". 	c #EBDBBF",
"+ 	c #EFDDC0",
"@ 	c #F2D9AD",
"# 	c #F2D6A4",
"$ 	c #EFD3A3",
"% 	c #EED3A4",
"& 	c #F0D5A7",
"* 	c #F2D5A2",
"= 	c #DBC6A4",
"- 	c #F4DEB8",
"; 	c #F7E0B8",
"> 	c #F9E3BC",
", 	c #FCEBCE",
"' 	c #FDECD0",
") 	c #FDE9C6",
"! 	c #F6D8A4",
"~ 	c #EAD1A7",
"{ 	c #F4DFBD",
"] 	c #FAE0B4",
"^ 	c #FDDFAB",
"/ 	c #F7D69D",
"( 	c #E9D2AC",
"_ 	c #FEE5BA",
": 	c #F1DDBC",
"< 	c #F1E7D6",
"[ 	c #F2E9D9",
"} 	c #F0E5D2",
"| 	c #E3D3B6",
"1 	c #D0B992",
"2 	c #E2CFB0",
"3 	c #FFEBCA",
"4 	c #FDE1B2",
"5 	c #FCDDA9",
"6 	c #F5D499",
"7 	c #E3D3B9",
"8 	c #F2E3CA",
"9 	c #E3DDD2",
"0 	c #F8F9F9",
"a 	c #F9F9F9",
"b 	c #EFEFEE",
"c 	c #C8C7C6",
"d 	c #A7A39E",
"e 	c #DCCBB0",
"f 	c #FFEAC5",
"g 	c #FCE0AF",
"h 	c #FBDCA6",
"i 	c #F2D195",
"j 	c #E2E1E1",
"k 	c #F7F7F6",
"l 	c #F6F6F6",
"m 	c #E6E6E6",
"n 	c #F4F4F4",
"o 	c #E7E7E7",
"p 	c #DADADA",
"q 	c #ADADAE",
"r 	c #93918E",
"s 	c #D9C8AD",
"t 	c #FFE8C2",
"u 	c #FCDFAC",
"v 	c #FADAA3",
"w 	c #F0CE92",
"x 	c #DEDDDD",
"y 	c #F7F7F7",
"z 	c #E4E4E4",
"A 	c #DFDEDE",
"B 	c #F3F2F2",
"C 	c #D4D4D4",
"D 	c #A6A6A6",
"E 	c #8C8986",
"F 	c #D8C7AA",
"G 	c #FFE7BE",
"H 	c #FCDEAA",
"I 	c #F8D89F",
"J 	c #EDCC8F",
"K 	c #F3F3F3",
"L 	c #E0E0E0",
"M 	c #DFDFDF",
"N 	c #F1F0F0",
"O 	c #EAE9E9",
"P 	c #DDDCDC",
"Q 	c #ADADAD",
"R 	c #928F8D",
"S 	c #D9C7AA",
"T 	c #FBDCA7",
"U 	c #F6D59A",
"V 	c #EAC98C",
"W 	c #E4CB9B",
"X 	c #EFEEEE",
"Y 	c #E6E5E5",
"Z 	c #D0CFCF",
"` 	c #A3A3A3",
" .	c #8B8885",
"..	c #D8C6A7",
"+.	c #FEE4B6",
"@.	c #FADBA4",
"#.	c #F4D396",
"$.	c #E8C789",
"%.	c #DCC495",
"&.	c #E8E7E7",
"*.	c #DEDEDE",
"=.	c #E0DFDF",
"-.	c #E7E6E6",
";.	c #D5D4D4",
">.	c #A7A6A6",
",.	c #8D8B88",
"'.	c #D9C6A6",
").	c #FEE2B2",
"!.	c #F8D9A0",
"~.	c #F1D092",
"{.	c #E5C587",
"].	c #DBC394",
"^.	c #DCDBDA",
"/.	c #D7D6D6",
"(.	c #CACACA",
"_.	c #9E9E9E",
":.	c #888582",
"<.	c #D8C4A3",
"[.	c #FDE0AE",
"}.	c #F6D69C",
"|.	c #EECD8E",
"1.	c #E2C185",
"2.	c #DDC494",
"3.	c #CCC8C4",
"4.	c #DAD9D9",
"5.	c #DCDBDB",
"6.	c #CFCECE",
"7.	c #A1A1A1",
"8.	c #8A8784",
"9.	c #D9C4A2",
"0.	c #F4D398",
"a.	c #ECCA8B",
"b.	c #DEBE82",
"c.	c #D9C091",
"d.	c #BEB6AC",
"e.	c #D4D3D3",
"f.	c #D1D0D0",
"g.	c #C5C4C4",
"h.	c #9A9A9A",
"i.	c #868380",
"j.	c #D8C29E",
"k.	c #FADCA5",
"l.	c #F1D194",
"m.	c #E8C788",
"n.	c #D9BA7F",
"o.	c #D5BC8E",
"p.	c #948061",
"q.	c #CCBEA6",
"r.	c #CDCCCC",
"s.	c #D9D8D8",
"t.	c #D3D2D2",
"u.	c #C3C2C2",
"v.	c #989798",
"w.	c #807F7F",
"x.	c #AB9F8C",
"y.	c #F0D39E",
"z.	c #EFCE90",
"A.	c #E4C485",
"B.	c #D5B57C",
"C.	c #D2B88B",
"D.	c #AE9A7A",
"E.	c #D9D2C5",
"F.	c #C6C6C6",
"G.	c #D6D5D5",
"H.	c #C8C8C8",
"I.	c #A2A2A2",
"J.	c #858485",
"K.	c #8E8981",
"L.	c #E4C996",
"M.	c #ECCC8D",
"N.	c #E0BF82",
"O.	c #D0B179",
"P.	c #CEB489",
"Q.	c #A99679",
"R.	c #DCD7CE",
"S.	c #C1C1C0",
"T.	c #D2D1D1",
"U.	c #CECDCC",
"V.	c #C9C9C9",
"W.	c #B0AFAF",
"X.	c #888888",
"Y.	c #8B867E",
"Z.	c #E1C592",
"`.	c #E9C889",
" +	c #DBBB80",
".+	c #CCAD76",
"++	c #CAB186",
"@+	c #A39175",
"#+	c #E1DBD1",
"$+	c #C2C1BE",
"%+	c #CECDCD",
"&+	c #D0D0CF",
"*+	c #BDBCBC",
"=+	c #909090",
"-+	c #8C877F",
";+	c #DEC28F",
">+	c #E5C486",
",+	c #D7B77D",
"'+	c #C7A873",
")+	c #C7AE84",
"!+	c #9D8C71",
"~+	c #D4D3CD",
"{+	c #B5B1A8",
"]+	c #B6B5B5",
"^+	c #B7B6B6",
"/+	c #B6B5B3",
"(+	c #AAA8A4",
"_+	c #878683",
":+	c #878179",
"<+	c #DABF8B",
"[+	c #E0C083",
"}+	c #D2B27A",
"|+	c #C4A572",
"1+	c #C7AF86",
"2+	c #93846C",
"3+	c #A2B5C3",
"4+	c #B8AF9A",
"5+	c #B6AEA0",
"6+	c #B1A590",
"7+	c #AF9E80",
"8+	c #B19B74",
"9+	c #AB956C",
"0+	c #89795A",
"a+	c #81735A",
"b+	c #D6BA86",
"c+	c #DCBB7F",
"d+	c #CEAF78",
"e+	c #CBB081",
"f+	c #8E7F66",
"g+	c #B5B7AE",
"h+	c #C6AD80",
"i+	c #C5A874",
"j+	c #CCAE79",
"k+	c #D3B580",
"l+	c #D9BC88",
"m+	c #CEB486",
"n+	c #635845",
"o+	c #D3B783",
"p+	c #D8B87E",
"q+	c #D2B787",
"r+	c #BEA77F",
"s+	c #D2B786",
"t+	c #DABF8D",
"                                            ",
"                      . + @ # $ % & *       ",
"            = - ; > , ' ) ! ~ { ] ^ /       ",
"            ( _ : < [ } | 1 2 3 4 5 6       ",
"            7 8 9 0 a b c d e f g h i       ",
"          j k l m n o p q r s t u v w       ",
"          x y z A B z C D E F G H I J       ",
"            K L M N O P Q R S _ T U V W     ",
"            X Y j O P Z `  ...+.@.#.$.%.    ",
"            &.*.=.-.j ;.>.,.'.).!.~.{.].    ",
"            ^.A =.A /.(._.:.<.[.}.|.1.2.    ",
"            3.4.x x 5.6.7.8.9.H 0.a.b.c.    ",
"            d.e.5.;.f.g.h.i.j.k.l.m.n.o.    ",
"          p.q.r.s.t.f.u.v.w.x.y.z.A.B.C.    ",
"          D.E.F.G.f.f.H.I.J.K.L.M.N.O.P.    ",
"          Q.R.S.T.U.r.V.W.X.Y.Z.`. +.+++    ",
"          @+#+$+%+6.Z &+*+=+-+;+>+,+'+)+    ",
"          !+~+{+]+^+^+/+(+_+:+<+[+}+|+1+    ",
"          2+3+4+5+6+7+8+9+0+a+b+c+d+e+      ",
"          f+g+h+i+j+k+l+m+  n+o+p+q+        ",
"            r+s+              s+t+          ",
"                                            "};
