/* XPM */
static const char * bt_pageprevious_xpm[] = {
"22 22 203 2",
"  	c None",
". 	c #5CC209",
"+ 	c #55B508",
"@ 	c #52AF08",
"# 	c #52AE08",
"$ 	c #5BC109",
"% 	c #5ABE09",
"& 	c #4EA508",
"* 	c #4B9C07",
"= 	c #4C9E07",
"- 	c #4DA107",
"; 	c #4C9F07",
"> 	c #59BC09",
", 	c #55B309",
"' 	c #4C9E08",
") 	c #52A708",
"! 	c #56AF09",
"~ 	c #57B009",
"{ 	c #57B008",
"] 	c #55AE07",
"^ 	c #57AF09",
"/ 	c #53A808",
"( 	c #54B109",
"_ 	c #55B409",
": 	c #50A208",
"< 	c #59B00A",
"[ 	c #5BB20A",
"} 	c #5AB208",
"| 	c #5BAE0F",
"1 	c #67AA2C",
"2 	c #5AAD0E",
"3 	c #5AB00A",
"4 	c #54B209",
"5 	c #59BD09",
"6 	c #51A509",
"7 	c #5DB20B",
"8 	c #5FB40B",
"9 	c #5EB40B",
"0 	c #5CB308",
"a 	c #64AF1E",
"b 	c #A1C581",
"c 	c #ABC992",
"d 	c #5FB011",
"e 	c #5FB50A",
"f 	c #5FB50B",
"g 	c #51A408",
"h 	c #57B909",
"i 	c #53AE09",
"j 	c #5CAF0B",
"k 	c #63B70C",
"l 	c #62B70B",
"m 	c #5FB20B",
"n 	c #77B43C",
"o 	c #BED3AC",
"p 	c #EEEDEF",
"q 	c #B9D1A4",
"r 	c #60B10F",
"s 	c #61B709",
"t 	c #61B70A",
"u 	c #62B70A",
"v 	c #5CAF09",
"w 	c #52AC09",
"x 	c #56AC09",
"y 	c #65B80D",
"z 	c #65B80B",
"A 	c #65B216",
"B 	c #91BE67",
"C 	c #D7E1D0",
"D 	c #EFEEF0",
"E 	c #F0EFF1",
"F 	c #BFD4AD",
"G 	c #74B236",
"H 	c #73B531",
"I 	c #6BB124",
"J 	c #54A80A",
"K 	c #57B809",
"L 	c #56B609",
"M 	c #5CB00B",
"N 	c #68B90D",
"O 	c #72B52D",
"P 	c #B0CC96",
"Q 	c #E7E9E5",
"R 	c #EFEEEF",
"S 	c #EEEEEE",
"T 	c #E7E9E4",
"U 	c #DCE3D6",
"V 	c #DEE4D9",
"W 	c #A7C788",
"X 	c #59AB0C",
"Y 	c #56B409",
"Z 	c #77B438",
"` 	c #C9D8BC",
" .	c #EDEDED",
"..	c #F1EFF2",
"+.	c #B2CE96",
"@.	c #5EAF0D",
"#.	c #54B108",
"$.	c #75B925",
"%.	c #A7C985",
"&.	c #E1E6DE",
"*.	c #EEEEEF",
"=.	c #EFEFF0",
"-.	c #F2F0F4",
";.	c #B3CE97",
">.	c #60B20E",
",.	c #54B008",
"'.	c #55B308",
").	c #64B90E",
"!.	c #7CC61B",
"~.	c #7DC128",
"{.	c #94C263",
"].	c #D0DDC5",
"^.	c #DBE3D4",
"/.	c #BFD4AC",
"(.	c #BFD4AB",
"_.	c #BED4AA",
":.	c #99C16F",
"<.	c #5FB30E",
"[.	c #53AF08",
"}.	c #53B108",
"|.	c #5EB80C",
"1.	c #82C924",
"2.	c #8DCE33",
"3.	c #8ECC3B",
"4.	c #90C354",
"5.	c #BBD2A6",
"6.	c #E8EAE7",
"7.	c #8EC44E",
"8.	c #95CC4F",
"9.	c #91CA47",
"0.	c #8CC83F",
"a.	c #87C535",
"b.	c #7DC227",
"c.	c #5DB60D",
"d.	c #51AC08",
"e.	c #7AC722",
"f.	c #95D23D",
"g.	c #9CD54A",
"h.	c #A0D653",
"i.	c #99CB58",
"j.	c #AACA88",
"k.	c #C2D5AF",
"l.	c #9FD15E",
"m.	c #AADB62",
"n.	c #A4D957",
"o.	c #9ED64C",
"p.	c #98D340",
"q.	c #7CC824",
"r.	c #55B109",
"s.	c #62BD11",
"t.	c #92D23C",
"u.	c #A4D954",
"v.	c #AADB60",
"w.	c #B0DE6A",
"x.	c #A9D76A",
"y.	c #A5CA7A",
"z.	c #A5C586",
"A.	c #A7D469",
"B.	c #B2DF6D",
"C.	c #ABDC62",
"D.	c #A6DA56",
"E.	c #93D33E",
"F.	c #62BC12",
"G.	c #4FA807",
"H.	c #52AD08",
"I.	c #6CC41A",
"J.	c #9DD84D",
"K.	c #B2DF6A",
"L.	c #B8E276",
"M.	c #BEE480",
"N.	c #BCE281",
"O.	c #A4CE6E",
"P.	c #B2DB76",
"Q.	c #BAE379",
"R.	c #B4E06D",
"S.	c #9ED94F",
"T.	c #6CC31B",
"U.	c #50A908",
"V.	c #50AB07",
"W.	c #66C016",
"X.	c #92D745",
"Y.	c #B4E271",
"Z.	c #C3E789",
"`.	c #CAEA95",
" +	c #C4E78B",
".+	c #B5E373",
"++	c #92D747",
"@+	c #66C017",
"#+	c #4CA307",
"$+	c #55B10A",
"%+	c #69C21C",
"&+	c #81D137",
"*+	c #90D749",
"=+	c #90D74A",
"-+	c #82D138",
";+	c #55B00A",
">+	c #4BA007",
",+	c #428D05",
"'+	c #479805",
")+	c #4A9E05",
"!+	c #4A9D05",
"~+	c #469705",
"{+	c #418B05",
"                                            ",
"                                            ",
"                . + @ # + $                 ",
"            % & * = - - ; * & >             ",
"          , ' ) ! ~ { ] ^ ^ / ' (           ",
"        _ : < [ [ } | 1 2 [ [ 3 : 4         ",
"      5 6 7 8 9 0 a b c d e 8 f 7 g h       ",
"      i j k l m n o p q r s t t u v w       ",
"    > x y z A B C D E F G H H H H I J K     ",
"    L M N O P Q R S S T U U U U V W X ,     ",
"    Y m Z ` D S  .S  .S R R R R ..+.@.#.    ",
"    Y k $.%.&.D S  . .*.=.=.=.E -.;.>.,.    ",
"    '.).!.~.{.].S S *.^././.(._.(.:.<.[.    ",
"    }.|.1.2.3.4.5.6.../.7.8.9.0.a.b.c.d.    ",
"      Y e.f.g.h.i.j.V k.l.m.n.o.p.q.r.      ",
"      d.s.t.u.v.w.x.y.z.A.B.C.D.E.F.G.      ",
"        H.I.J.K.L.M.N.O.P.Q.R.S.T.U.        ",
"          V.W.X.Y.Z.`.`. +.+++@+G.          ",
"            #+$+%+&+*+=+-+%+;+>+            ",
"                ,+'+)+!+~+{+                ",
"                                            ",
"                                            "};
