/* XPM */
static const char * bt_pagenext_xpm[] = {
"22 22 208 2",
"  	c None",
". 	c #5CC209",
"+ 	c #55B508",
"@ 	c #52AF08",
"# 	c #52AE08",
"$ 	c #5BC109",
"% 	c #5ABE09",
"& 	c #4EA508",
"* 	c #4B9C07",
"= 	c #4C9F07",
"- 	c #4DA107",
"; 	c #4C9E07",
"> 	c #59BC09",
", 	c #55B309",
"' 	c #4C9E08",
") 	c #52A708",
"! 	c #56AF09",
"~ 	c #55AE07",
"{ 	c #57B008",
"] 	c #57B009",
"^ 	c #57AF09",
"/ 	c #53A808",
"( 	c #54B109",
"_ 	c #55B409",
": 	c #50A208",
"< 	c #59B00A",
"[ 	c #5BB20A",
"} 	c #5BB209",
"| 	c #5AAD0E",
"1 	c #67AA2C",
"2 	c #5BAE0F",
"3 	c #5AB208",
"4 	c #5AB00A",
"5 	c #54B209",
"6 	c #59BD09",
"7 	c #51A509",
"8 	c #5DB20B",
"9 	c #5FB40B",
"0 	c #5EB40B",
"a 	c #5EB50A",
"b 	c #5FAF11",
"c 	c #ACC993",
"d 	c #A1C581",
"e 	c #64AF1D",
"f 	c #5DB308",
"g 	c #5FB50B",
"h 	c #51A408",
"i 	c #57B909",
"j 	c #53AE09",
"k 	c #5CAF09",
"l 	c #61B70A",
"m 	c #61B60A",
"n 	c #61B709",
"o 	c #60B10F",
"p 	c #BAD1A5",
"q 	c #EEEDEE",
"r 	c #BED3AB",
"s 	c #76B43B",
"t 	c #60B30B",
"u 	c #62B70B",
"v 	c #63B70C",
"w 	c #5DAF0B",
"x 	c #52AB09",
"y 	c #54A90A",
"z 	c #6AB025",
"A 	c #73B531",
"B 	c #73B431",
"C 	c #74B236",
"D 	c #C0D4AF",
"E 	c #F0EFF1",
"F 	c #EFEEF0",
"G 	c #D7E0CF",
"H 	c #91BE66",
"I 	c #65B315",
"J 	c #65B90B",
"K 	c #66B90D",
"L 	c #55AB0A",
"M 	c #57B709",
"N 	c #56B709",
"O 	c #59AB0D",
"P 	c #A8C88A",
"Q 	c #DEE4D9",
"R 	c #DCE3D6",
"S 	c #E7E9E4",
"T 	c #EEEEEE",
"U 	c #E7E9E5",
"V 	c #AFCC95",
"W 	c #72B52C",
"X 	c #69BA0D",
"Y 	c #5DB00B",
"Z 	c #56B509",
"` 	c #5EAF0E",
" .	c #B3CE98",
"..	c #F1EFF2",
"+.	c #EFEEEF",
"@.	c #EDEDED",
"#.	c #C8D8BB",
"$.	c #77B437",
"%.	c #5FB20B",
"&.	c #56B409",
"*.	c #60B20E",
"=.	c #B4CF99",
"-.	c #F2F0F4",
";.	c #EFEFF0",
">.	c #EEEEEF",
",.	c #E1E6DE",
"'.	c #A7C985",
").	c #76BA26",
"!.	c #54B009",
"~.	c #55B408",
"{.	c #5FB30E",
"].	c #99C170",
"^.	c #BFD4AB",
"/.	c #BED4AA",
"(.	c #BFD4AC",
"_.	c #DBE3D4",
":.	c #D0DDC5",
"<.	c #95C264",
"[.	c #7FC22A",
"}.	c #7EC71E",
"|.	c #64B90E",
"1.	c #53AF08",
"2.	c #53B108",
"3.	c #5DB70C",
"4.	c #7CC124",
"5.	c #85C533",
"6.	c #8BC73D",
"7.	c #90C946",
"8.	c #94CB4D",
"9.	c #8EC44D",
"0.	c #C0D4AD",
"a.	c #E8EAE7",
"b.	c #BBD2A5",
"c.	c #91C355",
"d.	c #90CD3D",
"e.	c #8FCF36",
"f.	c #84CA27",
"g.	c #5EB70D",
"h.	c #51AC08",
"i.	c #7BC822",
"j.	c #96D23D",
"k.	c #9CD549",
"l.	c #A2D855",
"m.	c #A9DB60",
"n.	c #9ED05D",
"o.	c #C2D5B0",
"p.	c #AACA88",
"q.	c #9ACC59",
"r.	c #A2D755",
"s.	c #9DD64C",
"t.	c #97D340",
"u.	c #7BC824",
"v.	c #55B109",
"w.	c #62BD11",
"x.	c #92D23C",
"y.	c #A4D954",
"z.	c #AADB5F",
"A.	c #B1DF6B",
"B.	c #A6D468",
"C.	c #A5C586",
"D.	c #A5CA7A",
"E.	c #AAD76B",
"F.	c #B1DF6D",
"G.	c #ABDC62",
"H.	c #A6DA56",
"I.	c #93D33E",
"J.	c #62BC12",
"K.	c #4FA807",
"L.	c #52AD08",
"M.	c #6CC41A",
"N.	c #9DD84D",
"O.	c #B2DF6A",
"P.	c #B9E277",
"Q.	c #B1DA75",
"R.	c #A4CE6D",
"S.	c #BCE282",
"T.	c #BFE582",
"U.	c #B9E279",
"V.	c #B4E06D",
"W.	c #9ED94F",
"X.	c #6CC31B",
"Y.	c #50A908",
"Z.	c #50AB07",
"`.	c #66C016",
" +	c #92D745",
".+	c #B4E271",
"++	c #C3E789",
"@+	c #CAE994",
"#+	c #CAEA96",
"$+	c #C4E88B",
"%+	c #B5E373",
"&+	c #92D747",
"*+	c #66C017",
"=+	c #4CA307",
"-+	c #55B10A",
";+	c #69C21B",
">+	c #81D137",
",+	c #90D749",
"'+	c #82D138",
")+	c #69C21C",
"!+	c #55B00A",
"~+	c #4BA007",
"{+	c #428D05",
"]+	c #479805",
"^+	c #4A9E05",
"/+	c #4A9D05",
"(+	c #469705",
"_+	c #418B05",
"                                            ",
"                                            ",
"                . + @ # + $                 ",
"            % & * = - - ; * & >             ",
"          , ' ) ! ! ~ { ] ^ / ' (           ",
"        _ : < [ } | 1 2 3 [ [ 4 : 5         ",
"      6 7 8 9 0 a b c d e f g g 8 h i       ",
"      j k l m m n o p q r s t u v w x       ",
"    > y z A B B A C D E F G H I J K L M     ",
"    N O P Q R R R R S T T F U V W X Y 5     ",
"    Z `  ...+.+.+.+.T @.T @.T F #.$.%.(     ",
"    &.*.=.-.E ;.;.;.>.@.@.T F ,.'.).v !.    ",
"    ~.{.].^./.^.^.(._.>.T q :.<.[.}.|.1.    ",
"    2.3.4.5.6.7.8.9.0...a.b.c.d.e.f.g.h.    ",
"      &.i.j.k.l.m.n.o.Q p.q.r.s.t.u.v.      ",
"      h.w.x.y.z.A.B.C.D.E.F.G.H.I.J.K.      ",
"        L.M.N.O.P.Q.R.S.T.U.V.W.X.Y.        ",
"          Z.`. +.+++@+#+$+%+&+*+K.          ",
"            =+-+;+>+,+,+'+)+!+~+            ",
"                {+]+^+/+(+_+                ",
"                                            ",
"                                            "};
