/* XPM */
static const char * bt_presentationpause_xpm[] = {
"22 22 220 2",
"  	c None",
". 	c #004697",
"+ 	c #004496",
"@ 	c #004C9C",
"# 	c #0063AE",
"$ 	c #007BC1",
"% 	c #008FD1",
"& 	c #008CCE",
"* 	c #0077BE",
"= 	c #005EAA",
"- 	c #004999",
"; 	c #004596",
"> 	c #0078BF",
", 	c #009EDB",
"' 	c #00A0DD",
") 	c #00A1DD",
"! 	c #009EDC",
"~ 	c #009BDA",
"{ 	c #009AD9",
"] 	c #006CB5",
"^ 	c #004C9B",
"/ 	c #0091D3",
"( 	c #00A2DE",
"_ 	c #00A6E1",
": 	c #00A9E2",
"< 	c #00AAE3",
"[ 	c #00A9E3",
"} 	c #00A7E1",
"| 	c #00A3DF",
"1 	c #008ACC",
"2 	c #004798",
"3 	c #0093D3",
"4 	c #00AEE6",
"5 	c #00B1E8",
"6 	c #4B789C",
"7 	c #03AFE5",
"8 	c #00AFE6",
"9 	c #00ABE3",
"0 	c #00A5E0",
"a 	c #0088CB",
"b 	c #004395",
"c 	c #0079BF",
"d 	c #00A1DE",
"e 	c #00B0E7",
"f 	c #00B6EA",
"g 	c #00BAED",
"h 	c #CE1318",
"i 	c #527898",
"j 	c #00B7EB",
"k 	c #00ABE4",
"l 	c #0069B2",
"m 	c #00509F",
"n 	c #009DDB",
"o 	c #00ADE5",
"p 	c #00B5EA",
"q 	c #00BCEE",
"r 	c #00C2F2",
"s 	c #696A84",
"t 	c #BD222A",
"u 	c #01BDEF",
"v 	c #00B0E6",
"w 	c #009FDC",
"x 	c #0099D9",
"y 	c #0071B9",
"z 	c #00B9EC",
"A 	c #00C1F1",
"B 	c #00C9F6",
"C 	c #0CC3EC",
"D 	c #D70C0F",
"E 	c #4489AA",
"F 	c #00BBEE",
"G 	c #00B3E8",
"H 	c #0059A6",
"I 	c #0086C9",
"J 	c #00A8E2",
"K 	c #00C3F3",
"L 	c #00CCF8",
"M 	c #00D5FE",
"N 	c #776377",
"O 	c #B02D38",
"P 	c #00BDEF",
"Q 	c #00B4E9",
"R 	c #0073BB",
"S 	c #0097D7",
"T 	c #00CDF9",
"U 	c #15B7E0",
"V 	c #E20202",
"W 	c #368FB6",
"X 	c #0DA4D4",
"Y 	c #0982C0",
"Z 	c #014696",
"` 	c #0098D8",
" .	c #009CDB",
"..	c #00C4F3",
"+.	c #755F76",
"@.	c #D10E12",
"#.	c #9E363F",
"$.	c #D16B6F",
"%.	c #98505D",
"&.	c #287AA9",
"*.	c #0496D4",
"=.	c #754A61",
"-.	c #CB6A70",
";.	c #C0434A",
">.	c #004597",
",.	c #0087CA",
"'.	c #00B9ED",
").	c #597291",
"!.	c #DB080A",
"~.	c #64536A",
"{.	c #EE7171",
"].	c #F99E9E",
"^.	c #F9A0A0",
"/.	c #CF7478",
"(.	c #2678A9",
"_.	c #924E5D",
":.	c #F59F9F",
"<.	c #F9A7A7",
"[.	c #F9A9A9",
"}.	c #C72626",
"|.	c #0072BA",
"1.	c #009CDA",
"2.	c #00A3DE",
"3.	c #417FA5",
"4.	c #DF0406",
"5.	c #457BA1",
"6.	c #3C7195",
"7.	c #E86869",
"8.	c #F78080",
"9.	c #F78181",
"0.	c #F78383",
"a.	c #CA6065",
"b.	c #F07E7F",
"c.	c #F78787",
"d.	c #F88989",
"e.	c #F88A8A",
"f.	c #C73030",
"g.	c #0053A1",
"h.	c #2C85B4",
"i.	c #DA070A",
"j.	c #5C6487",
"k.	c #01A5E0",
"l.	c #A43F49",
"m.	c #F56262",
"n.	c #F56363",
"o.	c #F56565",
"p.	c #F66666",
"q.	c #F66868",
"r.	c #F66969",
"s.	c #F66B6B",
"t.	c #E85C5C",
"u.	c #007EC3",
"v.	c #1B88C0",
"w.	c #CF0F15",
"x.	c #774C69",
"y.	c #1885BB",
"z.	c #B33840",
"A.	c #F34343",
"B.	c #F12121",
"C.	c #F00C0C",
"D.	c #F11515",
"E.	c #F13B3B",
"F.	c #E34748",
"G.	c #B41111",
"H.	c #0094D5",
"I.	c #0796D3",
"J.	c #BF1923",
"K.	c #91384F",
"L.	c #5A4967",
"M.	c #E00606",
"N.	c #ED0000",
"O.	c #EA0000",
"P.	c #E80000",
"Q.	c #E50101",
"R.	c #B50707",
"S.	c #0051A0",
"T.	c #0B8DCA",
"U.	c #724D6D",
"V.	c #0497D5",
"W.	c #30709E",
"X.	c #B51017",
"Y.	c #E50000",
"Z.	c #E30000",
"`.	c #E00000",
" +	c #DD0000",
".+	c #D50000",
"++	c #AC0000",
"@+	c #007FC4",
"#+	c #0497D4",
"$+	c #9D1823",
"%+	c #DE0000",
"&+	c #DB0000",
"*+	c #D80000",
"=+	c #D60000",
"-+	c #D30000",
";+	c #C90000",
">+	c #004394",
",+	c #0083C7",
"'+	c #0097D6",
")+	c #495479",
"!+	c #D30101",
"~+	c #AE0000",
"{+	c #C30000",
"]+	c #CE0000",
"^+	c #CB0000",
"/+	c #003D89",
"(+	c #004492",
"_+	c #432856",
":+	c #C80001",
"<+	c #CF0000",
"[+	c #980000",
"}+	c #BC0000",
"|+	c #C50000",
"1+	c #AB0000",
"2+	c #9F0000",
"3+	c #A60000",
"4+	c #940000",
"5+	c #700000",
"6+	c #920000",
"7+	c #930000",
"                  . .                       ",
"          + @ # $ % & * = -                 ",
"        ; > , ' ) ' ! ~ ~ { ] ;             ",
"      ^ / ( _ : < [ } | ! ~ ~ 1 2           ",
"    + 3 | : 4 5 6 7 8 9 0 ! ~ ~ a ;         ",
"  b c d : e f g h i j 5 k | ~ ~ ~ l         ",
"  m n 0 o p q r s t u j v } w ~ ~ x 2       ",
"  y w } e z A B C D E F G < d ~ ~ ~ H       ",
"; I w J 5 g K L M N O P Q k ( ~ ~ ~ R       ",
"2 S ! } e z A B T U V W X < d ~ ~ ~ Y Z     ",
". `  .0 o p q r ..+.@.#.$.%.&.~ *.=.-.;.    ",
">.,.~ ) J 8 p '.).!.~.{.].^./.(._.:.<.[.}.  ",
"  |.~ 1.2.: o 3.4.5.6.7.8.9.0.a.b.c.d.e.f.  ",
"  g.~ ~ 1.d h.i.j.: k.l.m.n.o.p.q.r.s.t.    ",
"  + u.~ ~ v.w.x.' ' , y.z.A.B.C.D.E.F.G.    ",
"    . H.I.J.K.~ ~ ~ ~ ~ L.M.N.O.P.Q.R.      ",
"      S.T.U.V.~ ~ ~ ~ W.X.P.Y.Z.`. +.+++    ",
"        . @+~ ~ ~ ~ #+$+Z.`.%+&+*+=+-+;+    ",
"          >+m ] ,+'+)+!+&+*+.+~+{+]+^+;+++  ",
"                /+(+_+:+-+<+++  [+}+|+|+1+  ",
"                      2+3+4+      5+6+7+    ",
"                                            "};
