/* XPM */
static const char * bt_presentation_xpm[] = {
"22 22 118 2",
"  	c None",
". 	c #C8C8C8",
"+ 	c #CBCBCB",
"@ 	c #CDCDCD",
"# 	c #CFCFCF",
"$ 	c #D2D2D2",
"% 	c #D9D9D9",
"& 	c #E0E0E0",
"* 	c #E1E1E1",
"= 	c #DFDFDF",
"- 	c #C1C1C1",
"; 	c #B7B7B7",
"> 	c #BDBDBD",
", 	c #F0F0F0",
"' 	c #E8E8E8",
") 	c #FFFFFF",
"! 	c #FDFDFD",
"~ 	c #ECECEC",
"{ 	c #DBDBDB",
"] 	c #C7C7C7",
"^ 	c #DCE2EA",
"/ 	c #E6E9ED",
"( 	c #EAEAEA",
"_ 	c #EEEEEE",
": 	c #C9C9C9",
"< 	c #C2C2C2",
"[ 	c #C5C5C5",
"} 	c #C8D2DD",
"| 	c #88A2C1",
"1 	c #2C66AB",
"2 	c #A5BAD3",
"3 	c #BACADD",
"4 	c #4C7DB6",
"5 	c #88A6CA",
"6 	c #DEE1E5",
"7 	c #FBFBFB",
"8 	c #F1F1F1",
"9 	c #C0C0C0",
"0 	c #585858",
"a 	c #575757",
"b 	c #7C7C7C",
"c 	c #A9B7C8",
"d 	c #1A5BA8",
"e 	c #1759A7",
"f 	c #A4B1BF",
"g 	c #D4DAE0",
"h 	c #E5E5E6",
"i 	c #C3C3C3",
"j 	c #CECECE",
"k 	c #A4A4A4",
"l 	c #B8B8B8",
"m 	c #323232",
"n 	c #454545",
"o 	c #2D62A0",
"p 	c #3F4347",
"q 	c #0E0E0E",
"r 	c #262626",
"s 	c #626262",
"t 	c #D7D7D7",
"u 	c #E9E9E9",
"v 	c #B3B3B3",
"w 	c #040404",
"x 	c #2D2D2D",
"y 	c #3A3A3A",
"z 	c #E2E2E2",
"A 	c #BBBBBB",
"B 	c #D0D0D0",
"C 	c #E6E6E6",
"D 	c #1B1B1B",
"E 	c #414141",
"F 	c #EFEFEF",
"G 	c #D1D1D1",
"H 	c #E4E4E4",
"I 	c #8E8E8E",
"J 	c #EDEDED",
"K 	c #D3D3D3",
"L 	c #EBEBEB",
"M 	c #D5D5D5",
"N 	c #CACACA",
"O 	c #CCCCCC",
"P 	c #E3E3E3",
"Q 	c #E5E5E5",
"R 	c #B6B6B6",
"S 	c #B8B9B8",
"T 	c #93A693",
"U 	c #8EA48E",
"V 	c #AEAFAE",
"W 	c #ABABAB",
"X 	c #ADADAD",
"Y 	c #DEDEDE",
"Z 	c #E7E7E7",
"` 	c #8A6852",
" .	c #B1927C",
"..	c #B3AE4B",
"+.	c #B5A644",
"@.	c #D6D6D6",
"#.	c #A55844",
"$.	c #B82625",
"%.	c #A17F13",
"&.	c #B39D5F",
"*.	c #C4C4C4",
"=.	c #F2F2F2",
"-.	c #D8D6D4",
";.	c #DDDAD7",
">.	c #DDDDDD",
",.	c #8F8F8F",
"'.	c #909090",
").	c #BEBEBE",
"!.	c #C6C6C6",
"~.	c #9E9E9E",
"{.	c #D8D8D8",
"].	c #999999",
"^.	c #BABABA",
"/.	c #6F6F6F",
"(.	c #8A8A8A",
"_.	c #979797",
":.	c #BFBFBF",
"<.	c #B4B4B4",
"                                            ",
"    . + @ # $ % & * = - ; >                 ",
"  . , , , , , , , ' ) ! ~ { > -             ",
"  ] , ^ / , , , , ( ) ) ) _ % : <           ",
"  [ } | 1 2 3 4 5 6 7 8 9 @ ~ , @           ",
"  0 a b c d e f % g h i * , , , j           ",
"  k l m n o p q r s t , , , , , #           ",
"    u v w x y - * z A ~ , , , , B           ",
"    C , D E z , , , , , , , , F G           ",
"    H , I $ , , , , , , , F _ J K           ",
"    * , F , , , , , , F _ J ~ L M           ",
"    z , , M N + O O O O @ j P ( t           ",
"    Q , , R S T U V W W W X Y ' %           ",
"    Z , , M `  ...+.O @ O # Z C @.          ",
"    ( , F K #.$.%.&.j @ O # C Q G           ",
"  *.L _ J K =.-.;._ j @ O # H P O           ",
"  *.J J ~ G =.=.=.F # O : @ z * :           ",
"  [ ~ L ( @.M M K = J =.=.# & = ]           ",
"  [ P ' ' Z C >.,.$ '.< B K = Y <           ",
"      ).- i !.~.k {.> ].= Y >.>.^.          ",
"              /.    k (._.:.i : <.          ",
"                                            "};
