/* XPM */
static const char * bt_run_xpm[] = {
"22 22 99 2",
"  	c None",
". 	c #858585",
"+ 	c #DADADA",
"@ 	c #E2E2E2",
"# 	c #8E8E8E",
"$ 	c #8C8C8C",
"% 	c #EDEDED",
"& 	c #EEEEEE",
"* 	c #E3E3E3",
"= 	c #939393",
"- 	c #848484",
"; 	c #979797",
"> 	c #EAEAEA",
", 	c #E9E9E9",
"' 	c #E8E8E8",
") 	c #C9C9C9",
"! 	c #7E7E7E",
"~ 	c #949494",
"{ 	c #ABABAB",
"] 	c #9F9F9F",
"^ 	c #7C7C7C",
"/ 	c #BABABA",
"( 	c #E7E7E7",
"_ 	c #E6E6E6",
": 	c #E5E5E5",
"< 	c #E4E4E4",
"[ 	c #E0E0E0",
"} 	c #D2D2D2",
"| 	c #DEDEDE",
"1 	c #D8D8D8",
"2 	c #7B7B7B",
"3 	c #ADADAD",
"4 	c #E1E1E1",
"5 	c #DFDFDF",
"6 	c #DDDDDD",
"7 	c #DCDCDC",
"8 	c #DBDBDB",
"9 	c #B4B4B4",
"0 	c #909090",
"a 	c #D9D9D9",
"b 	c #D7D7D7",
"c 	c #D4D4D4",
"d 	c #B9B9B9",
"e 	c #BFBFBF",
"f 	c #9E9E9E",
"g 	c #9C9C9C",
"h 	c #AEAEAE",
"i 	c #CBCBCB",
"j 	c #D3D3D3",
"k 	c #D1D1D1",
"l 	c #B7B7B7",
"m 	c #C6C6C6",
"n 	c #AAAAAA",
"o 	c #A8A8A8",
"p 	c #C3C3C3",
"q 	c #CCCCCC",
"r 	c #C0C0C0",
"s 	c #D6D6D6",
"t 	c #D5D5D5",
"u 	c #C8C8C8",
"v 	c #9D9D9D",
"w 	c #BBBBBB",
"x 	c #999999",
"y 	c #BEBEBE",
"z 	c #C1C1C1",
"A 	c #838383",
"B 	c #CFCFCF",
"C 	c #C2C2C2",
"D 	c #969696",
"E 	c #BDBDBD",
"F 	c #BCBCBC",
"G 	c #8B8B8B",
"H 	c #CDCDCD",
"I 	c #989898",
"J 	c #878787",
"K 	c #B1B1B1",
"L 	c #B8B8B8",
"M 	c #B2B2B2",
"N 	c #808080",
"O 	c #A5A5A5",
"P 	c #A2A2A2",
"Q 	c #B6B6B6",
"R 	c #B5B5B5",
"S 	c #B3B3B3",
"T 	c #A1A1A1",
"U 	c #B0B0B0",
"V 	c #AFAFAF",
"W 	c #8A8A8A",
"X 	c #797979",
"Y 	c #ACACAC",
"Z 	c #7A7A7A",
"` 	c #8D8D8D",
" .	c #828282",
"..	c #A7A7A7",
"+.	c #9A9A9A",
"@.	c #707070",
"#.	c #696969",
"$.	c #727272",
"%.	c #747474",
"              .                             ",
"            + @ #                           ",
"          $ % & * = -                       ",
"          ; > > , ' @ ) ; ! ~ { ] ^         ",
"          / ( _ : < * @ [ } | | 1 - 2       ",
"        3 * * @ 4 [ 5 | 6 7 8 + 9 2         ",
"      0 6 [ | 6 6 7 8 + a 1 b c $ 2         ",
"      d 6 7 a e f g h i c j k l 2           ",
"  ; m a 1 b e g n   l o p i q r !           ",
"  i s t c u f v w     x e y z p A 2         ",
"  p } k B C D ;       D E F w / . 2         ",
"  G d H m C { $       I w / d l - 2         ",
"    J z C z e # -   G K d L l M N 2         ",
"      O z e y E n P d L l Q R f 2           ",
"      # e E F w / d L Q R 9 S J 2           ",
"        T F / d L l Q R S M K A 2           ",
"        $ / d l Q R 9 S M U V W X           ",
"        G L l Q 9 S M U Y V V I Z           ",
"        G Q R g G ` W  .N $ ..+.^ @.        ",
"          0 J X #.          $.Z %.          ",
"                                            ",
"                                            "};
