/* XPM */
static const char * bt_runstop_xpm[] = {
"22 22 209 2",
"  	c None",
". 	c #B33939",
"+ 	c #B84343",
"@ 	c #B84242",
"# 	c #B63F3F",
"$ 	c #C05151",
"% 	c #D77171",
"& 	c #D86C6C",
"* 	c #D76B6B",
"= 	c #D76A6A",
"- 	c #D76969",
"; 	c #D76868",
"> 	c #CA6060",
", 	c #D76D6D",
"' 	c #D55D5D",
") 	c #D45B5B",
"! 	c #D45A5A",
"~ 	c #D45959",
"{ 	c #D35858",
"] 	c #D35757",
"^ 	c #D35656",
"/ 	c #D66060",
"( 	c #CA5E5E",
"_ 	c #D66B6B",
": 	c #D35555",
"< 	c #D25454",
"[ 	c #D25252",
"} 	c #D55C5C",
"| 	c #CA5D5D",
"1 	c #C05050",
"2 	c #D66969",
"3 	c #D45858",
"4 	c #D45C5C",
"5 	c #D66161",
"6 	c #D25353",
"7 	c #D15151",
"8 	c #D14E4E",
"9 	c #D14D4D",
"0 	c #C95B5B",
"a 	c #BF4E4E",
"b 	c #D56767",
"c 	c #EAB0B0",
"d 	c #F2CDCD",
"e 	c #D76767",
"f 	c #E8A9A9",
"g 	c #F2CECE",
"h 	c #D76666",
"i 	c #D04949",
"j 	c #C95858",
"k 	c #D16565",
"l 	c #D35353",
"m 	c #D25151",
"n 	c #E7A3A3",
"o 	c #FEFCFC",
"p 	c #FFFFFF",
"q 	c #F2CFCF",
"r 	c #D66363",
"s 	c #D14F4F",
"t 	c #E8A7A7",
"u 	c #FDF9F9",
"v 	c #F1CCCC",
"w 	c #D35454",
"x 	c #CF4545",
"y 	c #CE4444",
"z 	c #D25757",
"A 	c #B94242",
"B 	c #D06161",
"C 	c #D04C4C",
"D 	c #DE7F7F",
"E 	c #F9E9E9",
"F 	c #EAB1B1",
"G 	c #CF4242",
"H 	c #CF4141",
"I 	c #BC4545",
"J 	c #D05F5F",
"K 	c #D04B4B",
"L 	c #D04A4A",
"M 	c #CF4747",
"N 	c #DD7B7B",
"O 	c #F9E8E8",
"P 	c #FEFEFE",
"Q 	c #E7A1A1",
"R 	c #D14747",
"S 	c #CF4040",
"T 	c #D04040",
"U 	c #CF3E3E",
"V 	c #D24F4F",
"W 	c #BC4444",
"X 	c #CF5C5C",
"Y 	c #D04848",
"Z 	c #CF4646",
"` 	c #DE7D7D",
" .	c #FCF4F4",
"..	c #E9A7A7",
"+.	c #CE3636",
"@.	c #CC2F2F",
"#.	c #CC2D2D",
"$.	c #CC2B2B",
"%.	c #CB2828",
"&.	c #CF3B3B",
"*.	c #BA3D3D",
"=.	c #CF5A5A",
"-.	c #D04444",
";.	c #D04343",
">.	c #D04141",
",.	c #D14444",
"'.	c #E7A0A0",
").	c #FDFAFA",
"!.	c #EFBDBD",
"~.	c #CB2424",
"{.	c #C30000",
"].	c #C30202",
"^.	c #C40101",
"/.	c #C40000",
"(.	c #C91818",
"_.	c #B83333",
":.	c #D05858",
"<.	c #D14141",
"[.	c #D03F3F",
"}.	c #CD3333",
"|.	c #CB2727",
"1.	c #E48F8F",
"2.	c #FDF6F6",
"3.	c #FBEFEF",
"4.	c #EEB9B9",
"5.	c #CC2121",
"6.	c #C50000",
"7.	c #C60000",
"8.	c #C70000",
"9.	c #CC1818",
"0.	c #B93333",
"a.	c #D05555",
"b.	c #CE3131",
"c.	c #C81717",
"d.	c #C40505",
"e.	c #DE7373",
"f.	c #FDF8F8",
"g.	c #FDF7F7",
"h.	c #E38080",
"i.	c #D85050",
"j.	c #F8DFDF",
"k.	c #EFB4B4",
"l.	c #CD1111",
"m.	c #CA0000",
"n.	c #CF1818",
"o.	c #BB3333",
"p.	c #CA4444",
"q.	c #C80C0C",
"r.	c #D84F4F",
"s.	c #F9E5E5",
"t.	c #E48181",
"u.	c #CA0808",
"v.	c #C90000",
"w.	c #D94949",
"x.	c #F9E0E0",
"y.	c #FEFAFA",
"z.	c #E88989",
"A.	c #CF0808",
"B.	c #CD0000",
"C.	c #CE0000",
"D.	c #D12626",
"E.	c #B52C2C",
"F.	c #B12828",
"G.	c #CA2E2E",
"H.	c #CA0505",
"I.	c #DB4F4F",
"J.	c #E37474",
"K.	c #CD0909",
"L.	c #CC0000",
"M.	c #DC4A4A",
"N.	c #E67878",
"O.	c #D10B0B",
"P.	c #D00000",
"Q.	c #D10000",
"R.	c #D42020",
"S.	c #BF3333",
"T.	c #B22929",
"U.	c #CD2F2F",
"V.	c #CE0505",
"W.	c #CE0101",
"X.	c #CF0000",
"Y.	c #D20202",
"Z.	c #D30000",
"`.	c #D40000",
" +	c #D62020",
".+	c #C03333",
"++	c #CF2F2F",
"@+	c #D20505",
"#+	c #D20000",
"$+	c #D50000",
"%+	c #D60000",
"&+	c #D70000",
"*+	c #D92020",
"=+	c #C13232",
"-+	c #B32828",
";+	c #D22E2E",
">+	c #D70505",
",+	c #D80000",
"'+	c #D90000",
")+	c #DA0000",
"!+	c #DB2020",
"~+	c #B32727",
"{+	c #D03232",
"]+	c #D52A2A",
"^+	c #D62A2A",
"/+	c #D72A2A",
"(+	c #D62E2E",
"_+	c #C13030",
":+	c #A81C1C",
"                                            ",
"              . + + + + @ @ #               ",
"            $ % & * * = - ; = >             ",
"          $ , ' ) ! ! ~ { ] ^ / (           ",
"        $ _ ) ~ { { ] ^ : < [ [ } |         ",
"      1 2 3 ^ 4 5 6 6 [ 7 ^ ' 8 9 { 0       ",
"    a b : 6 ! c d e 8 8 6 f g h i i < j     ",
"    k l m 7 n o p q r s t u p v w x y z A   ",
"    B s 8 C D E p p d F u p u n i G H m I   ",
"    J K L i M N O p P P p u Q R S T U V W   ",
"    X Y M Z x G `  .p p p ..+.@.#.$.%.&.*.  ",
"    =.-.;.;.>.,.'.).p p p !.~.{.].^./.(._.  ",
"    :.<.[.}.|.1.u p 2.3.p p 4.5.6.7.8.9.0.  ",
"    a.b.c.d.e.f.p g.h.i.j.p p k.l.m.m.n.o.  ",
"    p.q.6.7.r.s.f.t.u.v.w.x.y.z.A.B.C.D.E.  ",
"    F.G.H.v.m.I.J.K.L.B.B.M.N.O.P.Q.R.S.    ",
"      T.U.V.B.W.W.X.P.P.Q.Q.Y.Z.`. +.+      ",
"        T.++@+Q.#+Z.Z.`.`.$+%+&+*+=+        ",
"          -+;+>+%+%+&+,+'+'+)+!+=+          ",
"            ~+{+]+]+]+^+^+/+(+_+            ",
"                :+                          ",
"                                            "};
