/* XPM */
static const char * bt_targetsearch_xpm[] = {
"22 22 85 1",
" 	c None",
".	c #A5A5A5",
"+	c #AEAEAE",
"@	c #979798",
"#	c #B2B2B2",
"$	c #EBEBEB",
"%	c #F8F8F9",
"&	c #F9F9FA",
"*	c #F3F3F4",
"=	c #D7D7D8",
"-	c #858586",
";	c #ADAEAE",
">	c #F6F6F8",
",	c #FAFAFB",
"'	c #F7F8F9",
")	c #E0E0E2",
"!	c #727273",
"~	c #E4E5E6",
"{	c #F7F7F8",
"]	c #B4B4B5",
"^	c #979799",
"/	c #ECECEF",
"(	c #F0F0F2",
"_	c #F3F4F5",
":	c #F3F3F5",
"<	c #F2F3F5",
"[	c #F4F4F6",
"}	c #D2D2D4",
"|	c #999A9B",
"1	c #ECECF0",
"2	c #E8E9EC",
"3	c #EAEAEE",
"4	c #EDEEF0",
"5	c #EEEEF1",
"6	c #EFEFF2",
"7	c #CBCBCD",
"8	c #737374",
"9	c #E0E0E3",
"0	c #E9E9ED",
"a	c #E6E6EA",
"b	c #E4E5E9",
"c	c #E5E5EA",
"d	c #E5E6EA",
"e	c #E6E6EB",
"f	c #A6A7A9",
"g	c #A3A4A7",
"h	c #E2E3E8",
"i	c #E1E1E7",
"j	c #DFE0E5",
"k	c #DEDFE4",
"l	c #DDDEE3",
"m	c #DFDFE5",
"n	c #D5D6D9",
"o	c #707071",
"p	c #99999D",
"q	c #CECFD4",
"r	c #D8D8DF",
"s	c #D7D8DF",
"t	c #D6D6DC",
"u	c #C3C4C7",
"v	c #9A9B9B",
"w	c #797979",
"x	c #8D8E90",
"y	c #98999B",
"z	c #88898A",
"A	c #737474",
"B	c #424548",
"C	c #626364",
"D	c #2E3236",
"E	c #676768",
"F	c #32363A",
"G	c #686869",
"H	c #393C3F",
"I	c #6B6C6C",
"J	c #11171D",
"K	c #434548",
"L	c #6F6F6F",
"M	c #151B22",
"N	c #4A4D4F",
"O	c #707070",
"P	c #181D23",
"Q	c #515355",
"R	c #1B2025",
"S	c #555758",
"T	c #22262B",
"                      ",
"                      ",
"                      ",
"       .+@            ",
"     #$%&*=-          ",
"    ;>,,&%')          ",
"   !~{%{{{>>]         ",
"   ^/(__::<[}         ",
"   |123455567         ",
"   890abcdcef         ",
"    ghijklmno         ",
"     pqrstuvw         ",
"       xyzABC         ",
"            DE        ",
"             FG       ",
"              HI      ",
"              JKL     ",
"               MNO    ",
"                PQL   ",
"                 RS   ",
"                  T   ",
"                      "};
